<?xml version="1.0" encoding="UTF-8" standalone="no"?>
<!-- Created with Inkscape (http://www.inkscape.org/) -->

<svg
   width="512"
   height="512"
   viewBox="0 0 135.46666 135.46667"
   version="1.1"
   id="svg1"
   xml:space="preserve"
   inkscape:version="1.3 (0e150ed6c4, 2023-07-21)"
   sodipodi:docname="panvasjs.svg"
   xmlns:inkscape="http://www.inkscape.org/namespaces/inkscape"
   xmlns:sodipodi="http://sodipodi.sourceforge.net/DTD/sodipodi-0.dtd"
   xmlns="http://www.w3.org/2000/svg"
   xmlns:svg="http://www.w3.org/2000/svg"><sodipodi:namedview
     id="namedview1"
     pagecolor="#ffffff"
     bordercolor="#000000"
     borderopacity="0.25"
     inkscape:showpageshadow="2"
     inkscape:pageopacity="0.0"
     inkscape:pagecheckerboard="0"
     inkscape:deskcolor="#d1d1d1"
     inkscape:document-units="mm"
     inkscape:zoom="1.1480597"
     inkscape:cx="256.08424"
     inkscape:cy="255.64872"
     inkscape:window-width="1920"
     inkscape:window-height="1009"
     inkscape:window-x="1912"
     inkscape:window-y="-8"
     inkscape:window-maximized="1"
     inkscape:current-layer="g1"><inkscape:page
       x="0"
       y="0"
       width="135.46666"
       height="135.46667"
       id="page1"
       margin="0"
       bleed="0"
       inkscape:export-filename="panvasjs.png"
       inkscape:export-xdpi="96"
       inkscape:export-ydpi="96" /></sodipodi:namedview><defs
     id="defs1" /><g
     inkscape:label="Layer 1"
     inkscape:groupmode="layer"
     id="layer1" /><g
     id="g1"
     inkscape:groupmode="layer"
     inkscape:label="1"
     transform="matrix(0.26458332,0,0,0.26458334,145.46667,0)"><g
       id="g12"
       transform="translate(-6.0972438,13.936557)"><path
         id="path10"
         style="fill:#000000;fill-opacity:1;fill-rule:nonzero;stroke:none;stroke-width:0.0750092"
         d="m -155.22971,19.852967 c -2.36192,-0.05221 -4.71764,-0.04959 -7.06988,0.0057 -15.68169,0.368599 -31.15562,3.088099 -46.51046,7.673031 -31.44154,9.383633 -59.91465,24.820292 -86.83015,43.25006 -49.63277,33.994042 -92.32692,75.498662 -130.80285,121.516692 -3.19939,3.82913 -6.36378,7.7628 -9.60765,11.75279 v 134.73467 l 0.95877,2.88769 -0.0114,0.003 c 0.14708,0.44456 0.32375,0.95417 0.4552,1.38838 7.47088,24.60304 18.17614,47.43123 35.95257,66.49106 2.06648,2.21276 3.70737,5.1522 4.64878,8.04004 4.36248,13.40415 13.06635,21.74495 27.15006,23.85269 4.92358,0.73511 9.36749,2.28132 13.84104,4.4866 20.66652,10.16368 36.71518,7.67902 53.899,-7.71286 1.03509,-0.92261 3.09572,-1.35604 4.5179,-1.10102 17.95347,3.15039 30.69191,-2.97736 38.9114,-19.18685 1.14315,-2.25027 2.52239,-2.83804 4.83939,-3.13806 13.82343,-1.80023 22.07746,-9.11382 23.07884,-21.31777 0.41928,-5.10813 2.21672,-8.90857 5.28606,-12.79407 6.34127,-8.03347 10.61733,-16.62454 2.91614,-26.2482 2.16629,-2.37778 4.25499,-4.43865 6.07697,-6.71141 6.08399,-7.59838 8.67067,-16.18074 4.52644,-25.30933 -2.22401,-4.89808 -2.44094,-9.21844 -0.71126,-13.98899 0.13648,-0.37506 0.26358,-0.75652 0.33857,-1.14655 3.19915,-16.67453 0.16273,-27.8509 -12.59778,-34.48169 -0.18828,-0.0976 -0.25023,-0.44458 -0.41822,-0.75963 1.79944,-0.51756 3.57609,-1.00477 5.33727,-1.54484 13.10484,-4.0505 21.45197,-12.45735 22.39035,-26.46158 0.52808,-7.87597 -0.43244,-15.84403 -0.74826,-24.47005 8.56085,-3.79547 13.27171,-11.44683 13.8695,-21.50554 0.27381,-4.60553 -0.0797,-9.34491 -0.87626,-13.89794 -0.56399,-3.23292 0.0715,-5.43802 2.08255,-7.94331 7.36894,-9.15864 11.59581,-19.42027 9.49101,-31.45174 -0.43728,-2.49781 0.34954,-4.13241 1.75822,-6.08268 11.98646,-16.62951 24.21136,-33.10154 35.58272,-50.143545 7.90675,-11.851444 14.26593,-24.6778 17.42009,-38.771992 3.52394,-15.751925 -1.50796,-25.256473 -17.74442,-27.926759 -7.18267,-1.181401 -14.31449,-1.829203 -21.40028,-1.985827 z" /><path
         style="fill:#000000;stroke-width:50"
         d="m -433.54143,347.68381 c 0,0 -51.58285,-105.01344 18.93937,-169.68448 70.52223,-64.67104 -18.93937,169.68448 -18.93937,169.68448 z"
         id="path11" /><path
         style="fill:#000000;stroke-width:50"
         d="m -433.54143,347.68381 c 0,0 -51.58285,-105.01344 18.93937,-169.68448 70.52223,-64.67104 -18.93937,169.68448 -18.93937,169.68448 z"
         id="path12" /></g><g
       id="g15"
       transform="translate(-10.416032,20.070273)"><path
         id="path13"
         style="fill:#000000;fill-opacity:1;fill-rule:nonzero;stroke:none;stroke-width:0.0750092"
         d="m -155.22971,19.852967 c -2.36192,-0.05221 -4.71764,-0.04959 -7.06988,0.0057 -15.68169,0.368599 -31.15562,3.088099 -46.51046,7.673031 -31.44154,9.383633 -59.91465,24.820292 -86.83015,43.25006 -49.63277,33.994042 -92.32692,75.498662 -130.80285,121.516692 -3.19939,3.82913 -6.36378,7.7628 -9.60765,11.75279 v 134.73467 l 0.95877,2.88769 -0.0114,0.003 c 0.14708,0.44456 0.32375,0.95417 0.4552,1.38838 7.47088,24.60304 18.17614,47.43123 35.95257,66.49106 2.06648,2.21276 3.70737,5.1522 4.64878,8.04004 4.36248,13.40415 13.06635,21.74495 27.15006,23.85269 4.92358,0.73511 9.36749,2.28132 13.84104,4.4866 20.66652,10.16368 36.71518,7.67902 53.899,-7.71286 1.03509,-0.92261 3.09572,-1.35604 4.5179,-1.10102 17.95347,3.15039 30.69191,-2.97736 38.9114,-19.18685 1.14315,-2.25027 2.52239,-2.83804 4.83939,-3.13806 13.82343,-1.80023 22.07746,-9.11382 23.07884,-21.31777 0.41928,-5.10813 2.21672,-8.90857 5.28606,-12.79407 6.34127,-8.03347 10.61733,-16.62454 2.91614,-26.2482 2.16629,-2.37778 4.25499,-4.43865 6.07697,-6.71141 6.08399,-7.59838 8.67067,-16.18074 4.52644,-25.30933 -2.22401,-4.89808 -2.44094,-9.21844 -0.71126,-13.98899 0.13648,-0.37506 0.26358,-0.75652 0.33857,-1.14655 3.19915,-16.67453 0.16273,-27.8509 -12.59778,-34.48169 -0.18828,-0.0976 -0.25023,-0.44458 -0.41822,-0.75963 1.79944,-0.51756 3.57609,-1.00477 5.33727,-1.54484 13.10484,-4.0505 21.45197,-12.45735 22.39035,-26.46158 0.52808,-7.87597 -0.43244,-15.84403 -0.74826,-24.47005 8.56085,-3.79547 13.27171,-11.44683 13.8695,-21.50554 0.27381,-4.60553 -0.0797,-9.34491 -0.87626,-13.89794 -0.56399,-3.23292 0.0715,-5.43802 2.08255,-7.94331 7.36894,-9.15864 11.59581,-19.42027 9.49101,-31.45174 -0.43728,-2.49781 0.34954,-4.13241 1.75822,-6.08268 11.98646,-16.62951 24.21136,-33.10154 35.58272,-50.143545 7.90675,-11.851444 14.26593,-24.6778 17.42009,-38.771992 3.52394,-15.751925 -1.50796,-25.256473 -17.74442,-27.926759 -7.18267,-1.181401 -14.31449,-1.829203 -21.40028,-1.985827 z" /><path
         style="fill:#000000;stroke-width:50"
         d="m -433.54143,347.68381 c 0,0 -51.58285,-105.01344 18.93937,-169.68448 70.52223,-64.67104 -18.93937,169.68448 -18.93937,169.68448 z"
         id="path14" /><path
         style="fill:#000000;stroke-width:50"
         d="m -433.54143,347.68381 c 0,0 -51.58285,-105.01344 18.93937,-169.68448 70.52223,-64.67104 -18.93937,169.68448 -18.93937,169.68448 z"
         id="path15" /></g></g></svg>
